<?xml version="1.0" encoding="UTF-8" standalone="no"?>
<!-- Created with Inkscape (http://www.inkscape.org/) -->

<svg
   xmlns:dc="http://purl.org/dc/elements/1.1/"
   xmlns:cc="http://creativecommons.org/ns#"
   xmlns:rdf="http://www.w3.org/1999/02/22-rdf-syntax-ns#"
   xmlns:svg="http://www.w3.org/2000/svg"
   xmlns="http://www.w3.org/2000/svg"
   xmlns:xlink="http://www.w3.org/1999/xlink"
   xmlns:sodipodi="http://sodipodi.sourceforge.net/DTD/sodipodi-0.dtd"
   xmlns:inkscape="http://www.inkscape.org/namespaces/inkscape"
   width="571.04834"
   height="613.85254"
   id="svg2"
   version="1.1"
   inkscape:version="0.48.2 r9819"
   sodipodi:docname="design2.svg">
  <defs
     id="defs4">
    <inkscape:perspective
       sodipodi:type="inkscape:persp3d"
       inkscape:vp_x="9.2857143 : 552.60966 : 1"
       inkscape:vp_y="0 : 1000 : 0"
       inkscape:vp_z="739.80877 : 546.89538 : 1"
       inkscape:persp3d-origin="372.04724 : 350.78739 : 1"
       id="perspective6077" />
    <linearGradient
       id="linearGradient4464">
      <stop
         style="stop-color:#e0e0e0;stop-opacity:1;"
         offset="0"
         id="stop4466" />
      <stop
         style="stop-color:#8a8a8a;stop-opacity:1;"
         offset="1"
         id="stop4468" />
    </linearGradient>
    <linearGradient
       id="linearGradient3659">
      <stop
         style="stop-color:#d1d1d1;stop-opacity:1;"
         offset="0"
         id="stop3661" />
      <stop
         style="stop-color:#5f5f5f;stop-opacity:1;"
         offset="1"
         id="stop3663" />
    </linearGradient>
    <linearGradient
       inkscape:collect="always"
       xlink:href="#linearGradient3659"
       id="linearGradient3665"
       x1="372.74628"
       y1="352.32648"
       x2="372.74628"
       y2="396.77319"
       gradientUnits="userSpaceOnUse" />
    <radialGradient
       inkscape:collect="always"
       xlink:href="#linearGradient4464"
       id="radialGradient4470"
       cx="373.25137"
       cy="770.02454"
       fx="373.25137"
       fy="770.02454"
       r="175.76146"
       gradientUnits="userSpaceOnUse" />
    <filter
       inkscape:collect="always"
       id="filter4546"
       color-interpolation-filters="sRGB">
      <feGaussianBlur
         inkscape:collect="always"
         stdDeviation="13.170894"
         id="feGaussianBlur4548" />
    </filter>
    <filter
       inkscape:collect="always"
       id="filter4558"
       x="-0.19130436"
       width="1.3826087"
       y="-0.19130436"
       height="1.3826087"
       color-interpolation-filters="sRGB">
      <feGaussianBlur
         inkscape:collect="always"
         stdDeviation="6.1579043"
         id="feGaussianBlur4560" />
    </filter>
    <radialGradient
       inkscape:collect="always"
       xlink:href="#linearGradient4464"
       id="radialGradient3034"
       gradientUnits="userSpaceOnUse"
       cx="373.25137"
       cy="770.02454"
       fx="373.25137"
       fy="770.02454"
       r="175.76146" />
  </defs>
  <sodipodi:namedview
     id="base"
     pagecolor="#ffffff"
     bordercolor="#666666"
     borderopacity="1.0"
     inkscape:pageopacity="0.0"
     inkscape:pageshadow="2"
     inkscape:zoom="0.98994949"
     inkscape:cx="252.33248"
     inkscape:cy="323.7001"
     inkscape:document-units="px"
     inkscape:current-layer="layer1"
     showgrid="false"
     showguides="true"
     inkscape:guide-bbox="true"
     inkscape:snap-global="false"
     inkscape:window-width="1459"
     inkscape:window-height="974"
     inkscape:window-x="2089"
     inkscape:window-y="76"
     inkscape:window-maximized="0"
     fit-margin-top="10"
     fit-margin-left="10"
     fit-margin-bottom="10"
     fit-margin-right="10">
    <sodipodi:guide
       orientation="1,0"
       position="194.49058,491.72318"
       id="guide3009" />
    <sodipodi:guide
       orientation="1,0"
       position="545.01351,406.87037"
       id="guide3011" />
    <sodipodi:guide
       orientation="0,1"
       position="383.3891,568.49477"
       id="guide3013" />
    <sodipodi:guide
       orientation="0,1"
       position="358.13529,524.04806"
       id="guide3015" />
    <sodipodi:guide
       orientation="0,1"
       position="450.05917,152.31193"
       id="guide3043" />
    <sodipodi:guide
       orientation="1,0"
       position="369.24697,78.570789"
       id="guide3045" />
  </sodipodi:namedview>
  <metadata
     id="metadata7">
    <rdf:RDF>
      <cc:Work
         rdf:about="">
        <dc:format>image/svg+xml</dc:format>
        <dc:type
           rdf:resource="http://purl.org/dc/dcmitype/StillImage" />
        <dc:title></dc:title>
      </cc:Work>
    </rdf:RDF>
  </metadata>
  <g
     inkscape:label="Layer 1"
     inkscape:groupmode="layer"
     id="layer1"
     transform="translate(-3.4993189,-306.96875)">
    <path
       style="fill:url(#linearGradient3665);fill-opacity:1;fill-rule:evenodd;stroke:#000000;stroke-width:1px;stroke-linecap:butt;stroke-linejoin:miter;stroke-opacity:1"
       d="m 373.25,317.46875 c -96.79423,0 -175.25,15.59648 -175.25,34.84375 l 0,44.46875 c 0,7.2526 78.45577,5.04378 175.25,5.04378 96.79423,0 175.25,2.20882 175.25,-5.04378 l 0,-44.46875 c 0,-19.24727 -78.45577,-34.84375 -175.25,-34.84375 z"
       id="path3017"
       inkscape:connector-curvature="0"
       sodipodi:nodetypes="sssssss" />
    <text
       xml:space="preserve"
       style="font-size:27.45278931px;font-style:normal;font-weight:normal;line-height:125%;letter-spacing:0px;word-spacing:0px;fill:#000000;fill-opacity:1;stroke:none;font-family:Sans"
       x="10.804978"
       y="371.07782"
       id="text3311"
       sodipodi:linespacing="125%"><tspan
         sodipodi:role="line"
         id="tspan3313"
         x="10.804978"
         y="371.07782">PVC End Cap</tspan></text>
    <path
       sodipodi:type="arc"
       style="fill:#d4dbf5;fill-opacity:1;fill-rule:evenodd;stroke:none"
       id="path3667"
       sodipodi:cx="373.25137"
       sodipodi:cy="435.73013"
       sodipodi:rx="175.26146"
       sodipodi:ry="6.6320601"
       d="m 548.51283,435.73013 c 0,3.66279 -78.46723,6.63206 -175.26146,6.63206 -96.79423,0 -175.26146,-2.96927 -175.26146,-6.63206 0,-3.66278 78.46723,-6.63206 175.26146,-6.63206 96.79423,0 175.26146,2.96928 175.26146,6.63206 z"
       transform="matrix(0.92507204,0,0,1,27.966963,0)" />
    <text
       xml:space="preserve"
       style="font-size:25.97664642px;font-style:normal;font-weight:normal;line-height:125%;letter-spacing:0px;word-spacing:0px;fill:#000000;fill-opacity:1;stroke:none;font-family:Sans"
       x="11.786991"
       y="444.54544"
       id="text4437"
       sodipodi:linespacing="125%"><tspan
         sodipodi:role="line"
         id="tspan4439"
         x="11.786991"
         y="444.54544">Sanded Plastic</tspan></text>
    <path
       transform="matrix(0.88472622,0,0,1,43.026094,78.22074)"
       sodipodi:type="arc"
       style="fill:#346517;fill-opacity:1;fill-rule:evenodd;stroke:none"
       id="path3667-1"
       sodipodi:cx="373.25137"
       sodipodi:cy="435.73013"
       sodipodi:rx="175.26146"
       sodipodi:ry="6.6320601"
       d="m 548.51283,435.73013 c 0,3.66279 -78.46723,6.63206 -175.26146,6.63206 -96.79423,0 -175.26146,-2.96927 -175.26146,-6.63206 0,-3.66278 78.46723,-6.63206 175.26146,-6.63206 96.79423,0 175.26146,2.96928 175.26146,6.63206 z" />
    <g
       id="g3027"
       transform="translate(0,-50.507627)">
      <path
         transform="translate(-2.6416016e-6,-1.5152235)"
         d="m 548.51283,770.02454 c 0,96.79423 -78.46723,175.26146 -175.26146,175.26146 -96.79423,0 -175.26146,-78.46723 -175.26146,-175.26146 0,-96.79424 78.46723,-175.26146 175.26146,-175.26146 96.79423,0 175.26146,78.46722 175.26146,175.26146 z"
         sodipodi:ry="175.26146"
         sodipodi:rx="175.26146"
         sodipodi:cy="770.02454"
         sodipodi:cx="373.25137"
         id="path3033"
         style="fill:url(#radialGradient3034);fill-opacity:1;fill-rule:evenodd;stroke:#000000;stroke-width:1px;stroke-linecap:butt;stroke-linejoin:miter;stroke-opacity:1"
         sodipodi:type="arc" />
      <path
         style="opacity:0.78325124;fill:#003acb;fill-opacity:1;stroke:none;filter:url(#filter4546)"
         d="m 387.78125,643.3125 c 24.11566,0.72361 47.71136,10.56328 65.375,26.84375 8.09375,-8.09375 16.1875,-16.1875 24.28125,-24.28125 -29.88542,-12.8125 -59.77083,-25.625 -89.65625,-38.4375 0,11.95833 0,23.91667 0,35.875 z M 265.4375,645.25 c 8.93262,8.45417 17.90314,18.64236 26.8125,26.03125 17.62299,-16.52394 41.25812,-26.47472 65.4375,-27.59375 -0.0312,-11.86458 -0.0625,-23.72917 -0.0937,-35.59375 -30.7188,12.38542 -61.43755,24.77083 -92.1563,37.15625 z M 471.5,688.21875 c 16.20733,17.33415 25.98887,40.65495 26.78125,64.5 11.28125,-0.0625 22.5625,-0.125 33.84375,-0.1875 -12.04167,-29.6875 -24.08333,-59.375 -36.125,-89.0625 -8.16667,8.25 -16.33333,16.5 -24.5,24.75 z m -257.78125,61.8125 c 11.05972,-0.19 22.71205,0.2104 33.40625,-0.34375 0.76393,-21.69134 9.45135,-42.96894 24,-58.96875 -7.57292,-7.51042 -15.14583,-15.02083 -22.71875,-22.53125 -11.5625,27.28125 -23.125,54.5625 -34.6875,81.84375 z M 498.5,785.09375 c -0.89757,23.51394 -10.59078,46.47615 -26.625,63.59375 8.03125,7.9375 16.0625,15.875 24.09375,23.8125 12.32292,-29.19792 24.64583,-58.39583 36.96875,-87.59375 -11.47917,0.0625 -22.95833,0.125 -34.4375,0.1875 z M 213.84375,787 c 11.44792,28.44792 22.89583,56.89583 34.34375,85.34375 7.96302,-8.34904 17.52818,-16.4822 24.25,-25.0625 -14.88753,-16.39813 -23.8242,-38.15425 -24.8125,-60.375 -11.26042,0.0312 -22.52083,0.0625 -33.78125,0.0937 z M 268.5,892.5625 c 29.29167,12.38542 58.58333,24.77083 87.875,37.15625 -0.3144,-11.82035 0.3745,-24.64927 -0.5625,-35.84375 -23.12165,-1.15348 -45.61817,-10.56875 -62.53125,-26.34375 -8.26042,8.34375 -16.52083,16.6875 -24.78125,25.03125 z m 183.5,-24 c -17.02204,15.44084 -39.62099,24.57906 -62.6875,25.375 0.0625,11.46875 0.125,22.9375 0.1875,34.40625 29.26042,-11.89583 58.52083,-23.79167 87.78125,-35.6875 -8.29768,-8.10691 -16.36323,-16.70712 -24.96875,-24.375 L 452,868.5625 z"
         id="path4472"
         inkscape:connector-curvature="0" />
      <path
         inkscape:connector-curvature="0"
         id="path3049"
         d="m 387.78125,643.3125 c 24.11566,0.72361 47.71136,10.56328 65.375,26.84375 8.09375,-8.09375 16.1875,-16.1875 24.28125,-24.28125 -29.88542,-12.8125 -59.77083,-25.625 -89.65625,-38.4375 0,11.95833 0,23.91667 0,35.875 z M 265.4375,645.25 c 8.93262,8.45417 17.90314,18.64236 26.8125,26.03125 17.62299,-16.52394 41.25812,-26.47472 65.4375,-27.59375 -0.0312,-11.86458 -0.0625,-23.72917 -0.0937,-35.59375 -30.7188,12.38542 -61.43755,24.77083 -92.1563,37.15625 z M 471.5,688.21875 c 16.20733,17.33415 25.98887,40.65495 26.78125,64.5 11.28125,-0.0625 22.5625,-0.125 33.84375,-0.1875 -12.04167,-29.6875 -24.08333,-59.375 -36.125,-89.0625 -8.16667,8.25 -16.33333,16.5 -24.5,24.75 z m -257.78125,61.8125 c 11.05972,-0.19 22.71205,0.2104 33.40625,-0.34375 0.76393,-21.69134 9.45135,-42.96894 24,-58.96875 -7.57292,-7.51042 -15.14583,-15.02083 -22.71875,-22.53125 -11.5625,27.28125 -23.125,54.5625 -34.6875,81.84375 z M 498.5,785.09375 c -0.89757,23.51394 -10.59078,46.47615 -26.625,63.59375 8.03125,7.9375 16.0625,15.875 24.09375,23.8125 12.32292,-29.19792 24.64583,-58.39583 36.96875,-87.59375 -11.47917,0.0625 -22.95833,0.125 -34.4375,0.1875 z M 213.84375,787 c 11.44792,28.44792 22.89583,56.89583 34.34375,85.34375 7.96302,-8.34904 17.52818,-16.4822 24.25,-25.0625 -14.88753,-16.39813 -23.8242,-38.15425 -24.8125,-60.375 -11.26042,0.0312 -22.52083,0.0625 -33.78125,0.0937 z M 268.5,892.5625 c 29.29167,12.38542 58.58333,24.77083 87.875,37.15625 -0.3144,-11.82035 0.3745,-24.64927 -0.5625,-35.84375 -23.12165,-1.15348 -45.61817,-10.56875 -62.53125,-26.34375 -8.26042,8.34375 -16.52083,16.6875 -24.78125,25.03125 z m 183.5,-24 c -17.02204,15.44084 -39.62099,24.57906 -62.6875,25.375 0.0625,11.46875 0.125,22.9375 0.1875,34.40625 29.26042,-11.89583 58.52083,-23.79167 87.78125,-35.6875 -8.29768,-8.10691 -16.36323,-16.70712 -24.96875,-24.375 L 452,868.5625 z"
         style="fill:#c7d7ff;fill-opacity:1;stroke:#000000;stroke-width:0.82037199px;stroke-linecap:butt;stroke-linejoin:miter;stroke-opacity:1" />
      <path
         sodipodi:type="arc"
         style="opacity:0.78325124;fill:#014aff;fill-opacity:1;stroke:none;filter:url(#filter4558)"
         id="path4552"
         sodipodi:cx="411.37314"
         sodipodi:cy="778.1319"
         sodipodi:rx="38.626854"
         sodipodi:ry="38.626854"
         d="m 449.99999,778.1319 c 0,21.33302 -17.29383,38.62685 -38.62685,38.62685 -21.33302,0 -38.62686,-17.29383 -38.62686,-38.62685 0,-21.33303 17.29384,-38.62686 38.62686,-38.62686 21.33302,0 38.62685,17.29383 38.62685,38.62686 z"
         transform="translate(-37.198277,-9.6225844)" />
      <path
         transform="translate(-37.198277,-9.6225844)"
         d="m 449.99999,778.1319 c 0,21.33302 -17.29383,38.62685 -38.62685,38.62685 -21.33302,0 -38.62686,-17.29383 -38.62686,-38.62685 0,-21.33303 17.29384,-38.62686 38.62686,-38.62686 21.33302,0 38.62685,17.29383 38.62685,38.62686 z"
         sodipodi:ry="38.626854"
         sodipodi:rx="38.626854"
         sodipodi:cy="778.1319"
         sodipodi:cx="411.37314"
         id="path4550"
         style="fill:#d5e1ff;fill-opacity:1;stroke:#000000;stroke-opacity:1"
         sodipodi:type="arc" />
    </g>
    <text
       xml:space="preserve"
       style="font-size:25.67705917px;font-style:normal;font-weight:normal;line-height:125%;letter-spacing:0px;word-spacing:0px;fill:#000000;fill-opacity:1;stroke:none;font-family:Sans"
       x="12.057492"
       y="515.79089"
       id="text4437-6"
       sodipodi:linespacing="125%"><tspan
         sodipodi:role="line"
         x="12.057492"
         y="515.79089"
         id="tspan6067">Circuit Board</tspan></text>
    <rect
       style="fill:#000000;fill-opacity:1;stroke:none"
       id="rect6071"
       width="27.142857"
       height="8.5714283"
       x="307.14285"
       y="503.79074" />
    <text
       xml:space="preserve"
       style="font-size:6.94641685px;font-style:normal;font-weight:normal;line-height:125%;letter-spacing:0px;word-spacing:0px;fill:#000000;fill-opacity:1;stroke:none;font-family:Sans"
       x="302.66348"
       y="501.40164"
       id="text6073"
       sodipodi:linespacing="125%"><tspan
         sodipodi:role="line"
         id="tspan6075"
         x="302.66348"
         y="501.40164">PIC12F508</tspan></text>
    <path
       style="fill:#d5d5d5;fill-opacity:1;stroke:#000000;stroke-width:1.47091007;stroke-opacity:1"
       d="m 372.22881,470.34546 c -8.10803,0 -14.68781,3.18022 -14.68781,7.09276 0,0.21744 0.0133,0.42509 0.053,0.63754 l -0.053,0 0,33.51127 29.11051,0 0,-32.87372 c 0.15515,-0.41281 0.2121,-0.84069 0.2121,-1.27509 0,-3.91254 -6.52676,-7.09276 -14.6348,-7.09276 z"
       id="rect6129"
       inkscape:connector-curvature="0" />
    <text
       xml:space="preserve"
       style="font-size:6.94641685px;font-style:normal;font-weight:normal;line-height:125%;letter-spacing:0px;word-spacing:0px;fill:#000000;fill-opacity:1;stroke:none;font-family:Sans"
       x="372.74628"
       y="469.00229"
       id="text6073-7"
       sodipodi:linespacing="125%"><tspan
         sodipodi:role="line"
         id="tspan6075-7"
         x="372.74628"
         y="469.00229">White LED</tspan></text>
    <path
       style="fill:#83a3f1;fill-opacity:1;stroke:#000000;stroke-width:0.67733943;stroke-opacity:1"
       d="m 439.93313,492.9333 c -3.57905,0 -6.4835,1.52773 -6.4835,3.40725 0,0.10445 0.006,0.2042 0.0234,0.30626 l -0.0234,0 0,16.09828 12.84997,0 0,-15.79201 c 0.0685,-0.19831 0.0936,-0.40385 0.0936,-0.61253 0,-1.87952 -2.88104,-3.40725 -6.46009,-3.40725 z"
       id="rect6129-5"
       inkscape:connector-curvature="0" />
    <path
       inkscape:connector-curvature="0"
       id="path6173"
       d="m 501.55244,491.92315 c -3.57905,0 -6.4835,1.52773 -6.4835,3.40725 0,0.10445 0.006,0.2042 0.0234,0.30626 l -0.0234,0 0,16.09828 12.84997,0 0,-15.79201 c 0.0685,-0.19831 0.0936,-0.40385 0.0936,-0.61253 0,-1.87952 -2.88104,-3.40725 -6.46009,-3.40725 z"
       style="fill:#83a3f1;fill-opacity:1;stroke:#000000;stroke-width:0.67733943;stroke-opacity:1" />
    <path
       style="fill:#83a3f1;fill-opacity:1;stroke:#000000;stroke-width:0.67733943;stroke-opacity:1"
       d="m 289.42041,488.89269 c -3.57905,0 -6.4835,1.52773 -6.4835,3.40725 0,0.10445 0.006,0.2042 0.0234,0.30626 l -0.0234,0 0,16.09828 12.84997,0 0,-15.79201 c 0.0685,-0.19831 0.0936,-0.40385 0.0936,-0.61253 0,-1.87952 -2.88104,-3.40725 -6.46009,-3.40725 z"
       id="path6175"
       inkscape:connector-curvature="0" />
    <path
       inkscape:connector-curvature="0"
       id="path6177"
       d="m 233.86202,490.913 c -3.57905,0 -6.4835,1.52773 -6.4835,3.40725 0,0.10445 0.006,0.2042 0.0234,0.30626 l -0.0234,0 0,16.09828 12.84997,0 0,-15.79201 c 0.0685,-0.19831 0.0936,-0.40385 0.0936,-0.61253 0,-1.87952 -2.88104,-3.40725 -6.46009,-3.40725 z"
       style="fill:#83a3f1;fill-opacity:1;stroke:#000000;stroke-width:0.67733943;stroke-opacity:1" />
    <text
       xml:space="preserve"
       style="font-size:6.94641685px;font-style:normal;font-weight:normal;line-height:125%;letter-spacing:0px;word-spacing:0px;fill:#000000;fill-opacity:1;stroke:none;font-family:Sans"
       x="448.76819"
       y="484.21564"
       id="text6073-7-5"
       sodipodi:linespacing="125%"><tspan
         sodipodi:role="line"
         id="tspan6075-7-7"
         x="448.76819"
         y="484.21564">Blue LEDs</tspan></text>
  </g>
</svg>
